<svg width="580" height="358" viewBox="0 0 580 358" fill="none" xmlns="http://www.w3.org/2000/svg">
<mask id="mask0" mask-type="alpha" maskUnits="userSpaceOnUse" x="0" y="0" width="580" height="358">
<rect width="580" height="357.374" rx="5" fill="#C4C4C4"/>
</mask>
<g mask="url(#mask0)">
<path d="M-5.85858 22.5974H593.391" stroke="#F1EFEF" stroke-opacity="0.35"/>
<g opacity="0.9">
<circle cx="13.3694" cy="11.3694" r="5" fill="#F74B4B"/>
<circle cx="29.8694" cy="11.3694" r="5" fill="#FDE07B"/>
<circle cx="46.3694" cy="11.3694" r="5" fill="#87E312"/>
</g>
<path fill-rule="evenodd" clip-rule="evenodd" d="M100.4 221.007H164.534C168.074 221.007 170.934 218.147 170.934 214.607V169.4C170.934 165.86 168.074 163 164.534 163H100.4C96.8595 163 94 165.86 94 169.4V214.607C94 218.147 96.8595 221.007 100.4 221.007ZM206.337 221.007H270.471C274.012 221.007 276.871 218.147 276.871 214.607V169.4C276.871 165.86 274.012 163 270.471 163H206.337C202.797 163 199.937 165.86 199.937 169.4V214.607C199.937 218.147 202.797 221.007 206.337 221.007ZM164.534 314.416H100.4C96.8595 314.416 94 311.557 94 308.016V262.809C94 259.269 96.8595 256.409 100.4 256.409H164.534C168.074 256.409 170.934 259.269 170.934 262.809V308.016C170.934 311.557 168.074 314.416 164.534 314.416ZM206.337 314.416H270.471C274.012 314.416 276.871 311.557 276.871 308.016V262.809C276.871 259.269 274.012 256.409 270.471 256.409H206.337C202.797 256.409 199.937 259.269 199.937 262.809V308.016C199.937 311.557 202.797 314.416 206.337 314.416Z" fill="url(#paint0_linear)"/>
<path fill-rule="evenodd" clip-rule="evenodd" d="M120.145 186.556C120.145 191.143 116.426 194.862 111.838 194.862C107.251 194.862 103.532 191.143 103.532 186.556C103.532 181.968 107.251 178.25 111.838 178.25C116.426 178.25 120.145 181.968 120.145 186.556ZM133.897 183.696L100.4 224.137H176.925L162.628 195.134L152.143 206.708L133.897 183.696ZM217.776 194.862C222.363 194.862 226.082 191.143 226.082 186.556C226.082 181.968 222.363 178.25 217.776 178.25C213.188 178.25 209.47 181.968 209.47 186.556C209.47 191.143 213.188 194.862 217.776 194.862ZM239.834 183.696L206.337 224.137H282.999L268.565 195.134L258.08 206.708L239.834 183.696ZM111.838 288.271C116.426 288.271 120.145 284.553 120.145 279.965C120.145 275.378 116.426 271.659 111.838 271.659C107.251 271.659 103.532 275.378 103.532 279.965C103.532 284.553 107.251 288.271 111.838 288.271ZM133.897 277.106L100.4 317.547H176.925L162.628 288.544L152.143 299.981L133.897 277.106ZM217.776 288.271C222.363 288.271 226.082 284.553 226.082 279.965C226.082 275.378 222.363 271.659 217.776 271.659C213.188 271.659 209.47 275.378 209.47 279.965C209.47 284.553 213.188 288.271 217.776 288.271ZM239.834 277.106L206.337 317.547H282.999L268.565 288.544L258.08 299.981L239.834 277.106Z" fill="#FFE099"/>
<path fill-rule="evenodd" clip-rule="evenodd" d="M313.398 221.007H377.533C381.073 221.007 383.932 218.147 383.932 214.607V169.4C383.932 165.86 381.073 163 377.533 163H313.398C309.858 163 306.999 165.86 306.999 169.4V214.607C306.999 218.147 309.858 221.007 313.398 221.007ZM419.336 221.007H483.47C487.01 221.007 489.87 218.147 489.87 214.607V169.4C489.87 165.86 487.01 163 483.47 163H419.336C415.795 163 412.936 165.86 412.936 169.4V214.607C412.936 218.147 415.795 221.007 419.336 221.007ZM377.533 314.416H313.398C309.858 314.416 306.999 311.557 306.999 308.016V262.809C306.999 259.269 309.858 256.409 313.398 256.409H377.533C381.073 256.409 383.932 259.269 383.932 262.809V308.016C383.932 311.557 381.073 314.416 377.533 314.416ZM419.336 314.416H483.47C487.01 314.416 489.87 311.557 489.87 308.016V262.809C489.87 259.269 487.01 256.409 483.47 256.409H419.336C415.795 256.409 412.936 259.269 412.936 262.809V308.016C412.936 311.557 415.795 314.416 419.336 314.416Z" fill="url(#paint1_linear)"/>
<path fill-rule="evenodd" clip-rule="evenodd" d="M333.143 186.556C333.143 191.143 329.424 194.862 324.837 194.862C320.249 194.862 316.531 191.143 316.531 186.556C316.531 181.968 320.249 178.25 324.837 178.25C329.424 178.25 333.143 181.968 333.143 186.556ZM346.895 183.696L313.398 224.137H389.924L375.626 195.134L365.141 206.708L346.895 183.696ZM430.774 194.862C435.362 194.862 439.08 191.143 439.08 186.556C439.08 181.968 435.362 178.25 430.774 178.25C426.187 178.25 422.468 181.968 422.468 186.556C422.468 191.143 426.187 194.862 430.774 194.862ZM452.832 183.696L419.336 224.137H495.997L481.563 195.134L471.079 206.708L452.832 183.696ZM324.837 288.271C329.424 288.271 333.143 284.553 333.143 279.965C333.143 275.378 329.424 271.659 324.837 271.659C320.249 271.659 316.531 275.378 316.531 279.965C316.531 284.553 320.249 288.271 324.837 288.271ZM346.895 277.106L313.398 317.547H389.924L375.626 288.544L365.141 299.981L346.895 277.106ZM430.774 288.271C435.362 288.271 439.08 284.553 439.08 279.965C439.08 275.378 435.362 271.659 430.774 271.659C426.187 271.659 422.468 275.378 422.468 279.965C422.468 284.553 426.187 288.271 430.774 288.271ZM452.832 277.106L419.336 317.547H495.997L481.563 288.544L471.079 299.981L452.832 277.106Z" fill="#FFE099"/>
<path fill-rule="evenodd" clip-rule="evenodd" d="M100.4 399.554H164.534C168.074 399.554 170.934 396.694 170.934 393.154V347.947C170.934 344.406 168.074 341.547 164.534 341.547H100.4C96.8595 341.547 94 344.406 94 347.947V393.154C94 396.694 96.8595 399.554 100.4 399.554ZM206.337 399.554H270.471C274.012 399.554 276.871 396.694 276.871 393.154V347.947C276.871 344.406 274.012 341.547 270.471 341.547H206.337C202.797 341.547 199.937 344.406 199.937 347.947V393.154C199.937 396.694 202.797 399.554 206.337 399.554ZM164.534 492.963H100.4C96.8595 492.963 94 490.104 94 486.563V441.356C94 437.816 96.8595 434.956 100.4 434.956H164.534C168.074 434.956 170.934 437.816 170.934 441.356V486.563C170.934 490.104 168.074 492.963 164.534 492.963ZM206.337 492.963H270.471C274.012 492.963 276.871 490.104 276.871 486.563V441.356C276.871 437.816 274.012 434.956 270.471 434.956H206.337C202.797 434.956 199.937 437.816 199.937 441.356V486.563C199.937 490.104 202.797 492.963 206.337 492.963Z" fill="url(#paint2_linear)"/>
<path fill-rule="evenodd" clip-rule="evenodd" d="M120.145 365.103C120.145 369.69 116.426 373.409 111.838 373.409C107.251 373.409 103.532 369.69 103.532 365.103C103.532 360.515 107.251 356.797 111.838 356.797C116.426 356.797 120.145 360.515 120.145 365.103ZM133.897 362.243L100.4 402.684H176.925L162.628 373.681L152.143 385.255L133.897 362.243ZM217.776 373.409C222.363 373.409 226.082 369.69 226.082 365.103C226.082 360.515 222.363 356.797 217.776 356.797C213.188 356.797 209.47 360.515 209.47 365.103C209.47 369.69 213.188 373.409 217.776 373.409ZM239.834 362.243L206.337 402.684H282.999L268.565 373.681L258.08 385.255L239.834 362.243ZM111.838 466.818C116.426 466.818 120.145 463.099 120.145 458.512C120.145 453.925 116.426 450.206 111.838 450.206C107.251 450.206 103.532 453.925 103.532 458.512C103.532 463.099 107.251 466.818 111.838 466.818ZM133.897 455.652L100.4 496.094H176.925L162.628 467.09L152.143 478.528L133.897 455.652ZM217.776 466.818C222.363 466.818 226.082 463.099 226.082 458.512C226.082 453.925 222.363 450.206 217.776 450.206C213.188 450.206 209.47 453.925 209.47 458.512C209.47 463.099 213.188 466.818 217.776 466.818ZM239.834 455.652L206.337 496.094H282.999L268.565 467.09L258.08 478.528L239.834 455.652Z" fill="#FFE099"/>
<path fill-rule="evenodd" clip-rule="evenodd" d="M313.398 399.554H377.533C381.073 399.554 383.932 396.694 383.932 393.154V347.947C383.932 344.406 381.073 341.547 377.533 341.547H313.398C309.858 341.547 306.999 344.406 306.999 347.947V393.154C306.999 396.694 309.858 399.554 313.398 399.554ZM419.336 399.554H483.47C487.01 399.554 489.87 396.694 489.87 393.154V347.947C489.87 344.406 487.01 341.547 483.47 341.547H419.336C415.795 341.547 412.936 344.406 412.936 347.947V393.154C412.936 396.694 415.795 399.554 419.336 399.554ZM377.533 492.963H313.398C309.858 492.963 306.999 490.104 306.999 486.563V441.356C306.999 437.816 309.858 434.956 313.398 434.956H377.533C381.073 434.956 383.932 437.816 383.932 441.356V486.563C383.932 490.104 381.073 492.963 377.533 492.963ZM419.336 492.963H483.47C487.01 492.963 489.87 490.104 489.87 486.563V441.356C489.87 437.816 487.01 434.956 483.47 434.956H419.336C415.795 434.956 412.936 437.816 412.936 441.356V486.563C412.936 490.104 415.795 492.963 419.336 492.963Z" fill="url(#paint3_linear)"/>
<path fill-rule="evenodd" clip-rule="evenodd" d="M333.143 365.103C333.143 369.69 329.424 373.409 324.837 373.409C320.249 373.409 316.531 369.69 316.531 365.103C316.531 360.515 320.249 356.797 324.837 356.797C329.424 356.797 333.143 360.515 333.143 365.103ZM346.895 362.243L313.398 402.684H389.924L375.626 373.681L365.141 385.255L346.895 362.243ZM430.774 373.409C435.362 373.409 439.08 369.69 439.08 365.103C439.08 360.515 435.362 356.797 430.774 356.797C426.187 356.797 422.468 360.515 422.468 365.103C422.468 369.69 426.187 373.409 430.774 373.409ZM452.832 362.243L419.336 402.684H495.997L481.563 373.681L471.079 385.255L452.832 362.243ZM324.837 466.818C329.424 466.818 333.143 463.099 333.143 458.512C333.143 453.925 329.424 450.206 324.837 450.206C320.249 450.206 316.531 453.925 316.531 458.512C316.531 463.099 320.249 466.818 324.837 466.818ZM346.895 455.652L313.398 496.094H389.924L375.626 467.09L365.141 478.528L346.895 455.652ZM430.774 466.818C435.362 466.818 439.08 463.099 439.08 458.512C439.08 453.925 435.362 450.206 430.774 450.206C426.187 450.206 422.468 453.925 422.468 458.512C422.468 463.099 426.187 466.818 430.774 466.818ZM452.832 455.652L419.336 496.094H495.997L481.563 467.09L471.079 478.528L452.832 455.652Z" fill="#FFE099"/>
<rect x="94" y="53" width="251" height="13" rx="6.5" fill="#FFE099"/>
<rect x="94" y="76" width="175" height="7" rx="3.5" fill="#FFE099"/>
<rect x="94" y="93" width="324" height="43" rx="7" fill="#FFE099"/>
</g>
<defs>
<linearGradient id="paint0_linear" x1="262.467" y1="163" x2="139.246" y2="337.519" gradientUnits="userSpaceOnUse">
<stop stop-color="#06EFB1"/>
<stop offset="1" stop-color="#15ADE0"/>
</linearGradient>
<linearGradient id="paint1_linear" x1="475.465" y1="163" x2="352.244" y2="337.519" gradientUnits="userSpaceOnUse">
<stop stop-color="#06EFB1"/>
<stop offset="1" stop-color="#15ADE0"/>
</linearGradient>
<linearGradient id="paint2_linear" x1="262.467" y1="341.547" x2="139.246" y2="516.066" gradientUnits="userSpaceOnUse">
<stop stop-color="#06EFB1"/>
<stop offset="1" stop-color="#15ADE0"/>
</linearGradient>
<linearGradient id="paint3_linear" x1="475.465" y1="341.547" x2="352.244" y2="516.066" gradientUnits="userSpaceOnUse">
<stop stop-color="#06EFB1"/>
<stop offset="1" stop-color="#15ADE0"/>
</linearGradient>
</defs>
</svg>
